<svg width="40" height="40" fill="none" xmlns="http://www.w3.org/2000/svg"><path d="M22.572 7.76h.277v-.81l1.04-1.035v-.173h-.225L22.641 6.76h-.797v.276h.728v.725z" fill="#EF3340"/><path d="M16.302 5.742h-.208v.173l1.04 1.035v.81h.277v-.724h.729V6.76h-.815l-1.023-1.018zm18.643 17.062a3.897 3.897 0 01-1.16-2.77 3.882 3.882 0 011.16-2.768l3.208-3.192A6.316 6.316 0 0040 9.614a6.315 6.315 0 00-1.847-4.46l-3.208-3.175A6.119 6.119 0 0030.686.005a6.149 6.149 0 00-4.41 1.612l-1.89 1.95-2.185 2.26h1.734v1.725l2.08-2.295 1.96-1.95a3.74 3.74 0 015.202.363l3.242 3.175a3.899 3.899 0 011.16 2.769 3.881 3.881 0 01-1.16 2.769l-3.173 3.192a6.295 6.295 0 00-1.86 4.46 6.27 6.27 0 001.86 4.46l3.173 3.174a3.898 3.898 0 011.16 2.77 3.882 3.882 0 01-1.16 2.769l-3.19 3.174a3.83 3.83 0 01-2.707 1.225 3.85 3.85 0 01-2.772-1.07l-6.121-6.107-1.734 1.725 6.12 6.108a6.277 6.277 0 004.446 1.733 6.275 6.275 0 004.38-1.889l3.312-3.209A6.316 6.316 0 0040 30.438c0-1.67-.664-3.273-1.847-4.46l-3.208-3.174zM24.542 5.119a.382.382 0 01-.652-.267.378.378 0 01.236-.351.383.383 0 01.416.084.396.396 0 01.034.534h-.034zM16.08 15.213l-2.427 2.415a3.664 3.664 0 00.364 5.176l5.982 5.952-1.734 1.726-5.948-5.987a6.092 6.092 0 01-1.983-4.238 6.065 6.065 0 011.62-4.389l4.126-4.037 1.734 1.725 2.237 2.226-1.734 1.725" fill="#B00C2F"/><path d="M28.026 15.937l-2.41-2.415-1.734-1.726-1.734 1.726-3.919 3.899 1.734 1.725 3.919-3.899 2.427 2.415a3.681 3.681 0 01-.364 5.176L12.074 36.641a3.836 3.836 0 01-2.746 1.044 3.847 3.847 0 01-2.682-1.2L3.56 33.209a3.898 3.898 0 01-1.16-2.77 3.883 3.883 0 011.16-2.769l3.19-3.174a6.316 6.316 0 001.847-4.46 6.315 6.315 0 00-1.847-4.46l-3.19-3.192a3.899 3.899 0 01-1.16-2.77 3.882 3.882 0 011.16-2.768L6.75 3.67a3.705 3.705 0 015.202-.362l1.925 1.95 2.22 2.173V5.827h1.733l-2.22-2.26-1.958-1.95A6.127 6.127 0 009.24.005a6.146 6.146 0 00-4.26 1.974L1.86 5.154A6.295 6.295 0 000 9.614a6.27 6.27 0 001.86 4.46l3.191 3.192a3.899 3.899 0 011.16 2.769 3.882 3.882 0 01-1.16 2.769l-3.19 3.174A6.297 6.297 0 000 30.438a6.27 6.27 0 001.86 4.46l3.191 3.175a6.275 6.275 0 004.38 1.889 6.277 6.277 0 004.446-1.734l6.12-6.107 1.735-1.726 6.017-5.9a6.056 6.056 0 00.277-8.558zM15.42 4.585a.382.382 0 01.588.478.381.381 0 01-.588.056.363.363 0 010-.534z" fill="#EF3340"/></svg>