<svg xmlns="http://www.w3.org/2000/svg" width="40" height="40" fill="none"><path fill="#ef3340" d="M22.572 7.76h.277v-.81l1.04-1.035v-.173h-.225L22.641 6.76h-.797v.276h.728z"/><path fill="#b00c2f" d="M16.302 5.742h-.208v.173l1.04 1.035v.81h.277v-.724h.729V6.76h-.815zm18.643 17.062a3.9 3.9 0 0 1-1.16-2.77 3.88 3.88 0 0 1 1.16-2.768l3.208-3.192A6.32 6.32 0 0 0 40 9.614a6.32 6.32 0 0 0-1.847-4.46l-3.208-3.175A6.12 6.12 0 0 0 30.686.005a6.15 6.15 0 0 0-4.41 1.612l-1.89 1.95-2.185 2.26h1.734v1.725l2.08-2.295 1.96-1.95a3.74 3.74 0 0 1 5.202.363l3.242 3.175a3.9 3.9 0 0 1 1.16 2.769 3.88 3.88 0 0 1-1.16 2.769l-3.173 3.192a6.3 6.3 0 0 0-1.86 4.46 6.27 6.27 0 0 0 1.86 4.46l3.173 3.174a3.9 3.9 0 0 1 1.16 2.77 3.88 3.88 0 0 1-1.16 2.769l-3.19 3.174a3.83 3.83 0 0 1-2.707 1.225 3.85 3.85 0 0 1-2.772-1.07l-6.121-6.107-1.734 1.725 6.12 6.108a6.28 6.28 0 0 0 4.446 1.733 6.28 6.28 0 0 0 4.38-1.889l3.312-3.209A6.32 6.32 0 0 0 40 30.438c0-1.67-.664-3.273-1.847-4.46zM24.542 5.119a.382.382 0 0 1-.652-.267.38.38 0 0 1 .236-.351.38.38 0 0 1 .416.084.396.396 0 0 1 .034.534zM16.08 15.213l-2.427 2.415a3.664 3.664 0 0 0 .364 5.176l5.982 5.952-1.734 1.726-5.948-5.987a6.1 6.1 0 0 1-1.983-4.238 6.07 6.07 0 0 1 1.62-4.389l4.126-4.037 1.734 1.725 2.237 2.226-1.734 1.725"/><path fill="#ef3340" d="m28.026 15.937-2.41-2.415-1.734-1.726-1.734 1.726-3.919 3.899 1.734 1.725 3.919-3.899 2.427 2.415a3.68 3.68 0 0 1-.364 5.176L12.074 36.641a3.84 3.84 0 0 1-2.746 1.044 3.85 3.85 0 0 1-2.682-1.2L3.56 33.209a3.9 3.9 0 0 1-1.16-2.77 3.88 3.88 0 0 1 1.16-2.769l3.19-3.174a6.32 6.32 0 0 0 1.847-4.46 6.32 6.32 0 0 0-1.847-4.46l-3.19-3.192a3.9 3.9 0 0 1-1.16-2.77 3.88 3.88 0 0 1 1.16-2.768L6.75 3.67a3.705 3.705 0 0 1 5.202-.362l1.925 1.95 2.22 2.173V5.827h1.733l-2.22-2.26-1.958-1.95A6.13 6.13 0 0 0 9.24.005a6.15 6.15 0 0 0-4.26 1.974L1.86 5.154A6.3 6.3 0 0 0 0 9.614a6.27 6.27 0 0 0 1.86 4.46l3.191 3.192a3.9 3.9 0 0 1 1.16 2.769 3.88 3.88 0 0 1-1.16 2.769l-3.19 3.174A6.3 6.3 0 0 0 0 30.438a6.27 6.27 0 0 0 1.86 4.46l3.191 3.175a6.28 6.28 0 0 0 4.38 1.889 6.28 6.28 0 0 0 4.446-1.734l6.12-6.107 1.735-1.726 6.017-5.9a6.056 6.056 0 0 0 .277-8.558M15.42 4.585a.382.382 0 0 1 .588.478.38.38 0 0 1-.588.056.363.363 0 0 1 0-.534"/></svg>