<?xml version="1.0" encoding="UTF-8"?>
<svg version="1.1" viewBox="0 0 1600 473" width="409" height="121" fill="currentColor" stroke="currentColor" xmlns="http://www.w3.org/2000/svg">
    <path transform="translate(129,41)" d="m0 0h9l12 3 12 6 10 9 7 8 6 12 2 7v21l-3 13-5 9-9 9-8 5-1 13-4 11-6 10-9 8-10 5-3 1 24 8 12 7 10 9 7 9 5 12 2 8v19l-4 12-8 11-11 9-9 5 2 10 5 31v27l-4 20-5 15-7 15-12-1-1-4 5-25 1-17-2-13-4-8-7-6-8-3-6-1h-14l-9 2-8 5-4 5-2 5-1 12 3 21 4 20v7l-5 1h-7l-3-5-6-16-5-25-3-28v-21l2-16 1-6-7-16-3-11-1-16 2-14 8-16 8-11 11-11 13-8 14-5 10-2 1-1-9-4-6-5-6-8-5-13-1-14 2-12v-7l-6-12-4-13-1-7v-9l3-13 6-10 10-9 15-8 12-4z"/>
    <path transform="translate(495,27)" d="m0 0 4 2 7 7 18 13 20 12 22 12 24 12 18 8 4 4-8 4-28 9-9 2 2 7v23l-5 16-7 11-9 10-7 5 32-9 33-11 39-16 18-8h2l1 13-44 22-18 11-15 11-10 9-6 10-5 15-2 15-3 54-3 21-9 40-2 17v16l1 23h-11l-2-6-1-10v-35l3-30 2-15v-6l-3-3h-8l-7 4-6 7-9 16-15 29-13 22-14 22-5 6-9-2 1-5 21-42 11-25 10-27 6-22 4-24 1-10v-13l-2-7-8 1-20 6-5 1h-10l-6-3-1-2v-9l6-9 7-7 13-10 14-8 23-10 2-1-8-1-11-9-5-10-2-8-1-19-10 3-10 5h-4l4-16 10-38 10-48z"/>
    <path transform="translate(292,53)" d="m0 0h7l2 9 5 44 2 36-5 3v14l-4 11-7 10-8 7-3 2 14 1 7 3 5 6 3 8 1 7v11l-3 16-4 12-8 15-14 19-7 10-2 9-3 27v25l5 24 10 31-1 4h-6l-5-8-9-25-6-25-5-26-4-10-3-2h-9l-6 4-4 7-3 9-1 5v21l5 26 5 19v5h-7l-4-8-7-21-5-24-1-8v-25l5-33 6-32v-9l-2-8v-20l4-12 7-9 7-6 14-8 3-1-10-3-11-8-6-8-4-13-1-8h-10l-1-1-11-80 1-5 8-2 45-7zm-2 188-12 27 1 2 6-10 5-11 1-8z"/>
    <path transform="translate(374,61)" d="m0 0h3l4 21 4 24v6l57-13h3l8 25 6 22-1 3-12 5-17 5v18l-4 10-8 12-9 6-8 3 8 6 7 9 6 12 6 16 6 25 6 33 1 12-4 2-2-3-6-33-6-18-7-13-2-3 2 32 4 55 4 61v16h-9l-3-32-5-29-5-15-7-11-6-4-3-1h-7l-8 4-5 7-4 15-1 7v22l4 37h-10l-2-4-5-46v-51l5-41 1-10-8 15-5 15-7 31-3 2-2-3 1-17 4-23 6-23 7-17 10-19 10-11 10-5-7-1-9-8-5-9-5-13-4-6-10-33-17-54-2-11 49-12zm-20 200 1 2z"/>
    <path transform="translate(828,314)" d="m0 0h27v14l-4 50v5l2 2h5l6-5 8-13 8-17 4-16 2-19 1-1h25v22l-2 37v19l8 2 8 1 1 3-3 15-10 36-3 6-3 1h-9l-9-2v-7l8-27-7-1-7-5-3-10-1-14-9 13-7 8-10 7-7 3h-12l-7-4-4-6-1-4v-25l3-57 1-10z"/>
    <path transform="translate(1497,311)" d="m0 0h8l13 4 4-1 1-1h20l3 1v29l-4 71-1 4-9 2h-8l-7-2-2-3-1-20-7 9-7 7-10 7-10 4h-8l-8-4-7-8-4-11-1-7v-15l2-17 4-15 7-13 11-12 10-6zm5 25-10 5-7 8-4 9-2 10v17l4 5h5l9-8 9-15 8-16 3-8v-6l-1-1z"/>
    <path transform="translate(1083,144)" d="m0 0h15l9 3 5-1h23l1 1v13l-5 88-2 3-6 1h-12l-5-2-1-1-1-20h-2l-8 10-12 10-8 4-4 1h-8l-8-3-5-4-6-12-2-13 1-23 4-17 6-14 8-10 9-8 10-5zm13 24-9 2-9 6-6 10-3 11-1 7v11l3 6 1 1h6l7-6 9-14 9-17 3-8 1-7-7-2z"/>
    <path transform="translate(982,144)" d="m0 0h24l10 3 6 4 5 6 2 9-1 13-4 9-5 5 6 4 5 8 1 3v17l-4 11-8 9-9 5-10 3-7 1h-30l-11-2-4-2-1-2v-17l4-75 1-4 9-4 14-3zm4 25-7 2-3 12 1 4 12-1 9-4 4-5-2-5-7-3zm-1 41-8 1-2 4-1 12 2 2h13l9-3 5-5-1-5-3-3-4-2z"/>
    <path transform="translate(1184,144)" d="m0 0h31l13 1 3 1v25l-4 75-1 5-5 1h-15l-6-2v-36l-8 3-7 10-8 14-7 10-2 1h-16l-9-2-1-1v-6l14-21 7-11 1-3-4-2-7-7-3-10v-13l2-9 6-10 10-8 10-4zm9 25-9 3-5 5v6l4 5 4 2h13l3-2 1-4-1-13-4-2z"/>
    <path transform="translate(942,314)" d="m0 0h27v22l-3 39v11l8-2 8-9 7-12 7-18 3-14 2-17h26l-1 33-4 69-3 3-14 1-9-2-1-3v-12l-1-12-9 12-9 10-9 6-5 2h-12l-6-3-6-7-1-4v-24l4-64z"/>
    <path transform="translate(846,146)" d="m0 0h26l1 5-4 67 7-1 6-5 7-11 8-17 4-13 3-25h26v13l-4 78-1 13-7 2h-13l-6-2-1-28-8 12-14 14-8 5-3 1h-12l-7-4-5-9-1-5v-11l4-68 1-10z"/>
    <path transform="translate(1253,314)" d="m0 0h27v14l-3 42v15l4 1 8-6 7-11 8-16 4-13 3-24 1-2h25v23l-4 72-1 8-2 2-5 1h-11l-7-2-1-5-1-22-9 12-12 12-7 5-5 2h-11l-8-5-4-7-1-4v-21l4-69z"/>
    <path transform="translate(1085,311)" d="m0 0 14 1 10 4 9 7 6 9 4 12 1 10v12l-2 15-5 14-7 10-7 7-10 6-10 3h-18l-11-4-8-6-7-9-5-14-1-9v-11l2-16 4-12 6-11 8-8 12-7 7-2zm-3 26-7 4-4 6-4 15v20l4 9 4 4 2 1h9l6-4 4-5 3-9 1-5v-23l-4-9-6-4z"/>
    <path transform="translate(767,311)" d="m0 0 14 1 12 5 9 8 6 12 3 12v23l-4 16-7 14-11 11-12 6-7 2h-17l-10-3-9-6-7-9-4-9-2-11v-22l3-16 7-14 9-10 10-6 9-3zm-3 26-7 4-6 12-2 10v18l3 9 7 6h9l8-5 4-8 2-9v-25l-4-8-5-4z"/>
    <path transform="translate(1146,314)" d="m0 0h26v16l-1 22h31l3-37 1-1h25v18l-3 60-2 26-7 2h-12l-6-2-1-1v-19l1-20h-32l-1 24-1 14-2 3-7 1h-8l-9-2-1-3 1-27 4-68z"/>
    <path transform="translate(691,311)" d="m0 0 14 1 11 4 1 2v19l-1 4-13-3h-13l-8 4-6 8-4 10-1 5v13l4 10 6 5 9 2 12-3 10-3 1 1v20l-3 5-12 5-5 1h-21l-10-3-9-6-6-8-4-10-1-6v-23l3-16 5-12 8-11 8-7 10-5 7-2z"/>
    <path transform="translate(685,127)" d="m0 0h30l5 8 24 44 1 9-8 14-8 11-10 16-14 21-5 2h-9l-13-2-1-1v-6l7-11 8-11 10-15 12-17-1-6-9-16-9-15-9-17z"/>
    <path transform="translate(814,127)" d="m0 0h25l1 2-8 16-22 32-5 7 2 6 18 36 8 17v6l-9 3-7 1-12-1-3-3-14-29-11-24-2-6v-9l12-16 16-24 10-13z"/>
    <path transform="translate(1424,314)" d="m0 0h28l-1 7-8 10-11 13-10 11-5 6 1 4 8 14 8 13 9 14 2 5v5l-2 2-11 2h-14l-5-3-13-22-11-19-4-9-1-5 3-5 9-10 9-11 11-13z"/>
    <path transform="translate(750,127)" d="m0 0h25l1 1-2 49-2 38-2 32-2 4-5 1h-13l-6-2v-23l1-31 4-64z"/>
    <path transform="translate(1360,314)" d="m0 0h25v25l-3 55-2 24-8 2h-10l-7-2-1-1v-18l4-71 1-12z"/>
    <path transform="translate(1196,217)" d="m0 0"/>
    <path transform="translate(1197,216)" d="m0 0"/>
    <path transform="translate(1197,170)" d="m0 0"/>
</svg>